<svg width="540" height="422" viewBox="0 0 540 422" fill="none" xmlns="http://www.w3.org/2000/svg">
<path d="M251.4 115.8C253 153 252.8 190.8 250.8 229.2L249 420.6C243 419.8 236.4 419.4 229.2 419.4C222 419.4 214.8 419.4 207.6 419.4C200.4 419.4 193.4 419.6 186.6 420C180.2 420 174.6 420 169.8 420C169 402.8 168.4 384.2 168 364.2C168 344.2 167.8 323.8 167.4 303C167.4 282.2 166.8 261.8 165.6 241.8C164.8 221.8 163.4 203.4 161.4 186.6C158.6 191 155.4 198 151.8 207.6C148.2 216.8 144.6 226.4 141 236.4C137.4 246.4 134 255.2 130.8 262.8C127.6 270.4 125.2 274.2 123.6 274.2C121.6 274.2 119.2 272.2 116.4 268.2C114 263.8 111.4 258.4 108.6 252C106.2 245.6 103.6 238.8 100.8 231.6C97.9999 224.4 95.5999 217.8 93.5999 211.8C91.5999 205.8 89.7999 200.8 88.1999 196.8C86.9999 192.8 86.3999 190.8 86.3999 190.8C83.1999 228.4 81.9999 266.4 82.7999 304.8C83.9999 343.2 85.7999 381 88.1999 418.2C75.3999 420.2 61.3999 421 46.1999 420.6C30.9999 420.2 16.9999 420 4.1999 420C3.3999 420 2.7999 419.4 2.3999 418.2C1.9999 416.6 1.5999 412.8 1.1999 406.8C0.799904 400.8 0.399904 391.8 -9.69768e-05 379.8C-9.69768e-05 367.4 -9.69768e-05 351.2 -9.69768e-05 331.2C-9.69768e-05 311.2 -9.69768e-05 286.4 -9.69768e-05 256.8C0.399904 227.2 0.599904 192 0.599904 151.2C0.999904 110.4 1.3999 62.8 1.7999 8.4C6.9999 6.8 12.9999 5.8 19.7999 5.4C26.5999 5.00001 33.5999 5.00001 40.7999 5.4C47.9999 5.4 55.1999 5.6 62.3999 6C69.5999 6 76.5999 5.8 83.3999 5.4H83.9999C87.5999 9.4 91.1999 15.6 94.7999 24C98.3999 32 101.8 40.6 105 49.8C108.2 59 111.2 67.8 114 76.2C117.2 84.6 120.4 91.2 123.6 96C124.8 97.2 126 97.8 127.2 97.8C128.4 98.2 130.2 94.4 132.6 86.4C135.4 78.4 138.2 69.2 141 58.8C144.2 48 147.6 37.4 151.2 27C155.2 16.6 159 9.00001 162.6 4.20002C165.4 4.60001 170.4 4.60001 177.6 4.20002C185.2 3.80002 193.2 3.40002 201.6 3C210.4 2.6 219.2 2.40001 228 2.40001C237.2 2.00001 245 1.80001 251.4 1.80001C249.8 40.2 249.8 78.2 251.4 115.8ZM539.386 0.599994C539.386 0.599994 539.386 0.800004 539.386 1.20002C533.786 18.8 527.786 36.4 521.386 54C514.986 71.2 508.786 88.8 502.786 106.8C496.786 124.4 491.186 142.4 485.986 160.8C481.186 178.8 477.386 197 474.586 215.4C477.386 232.2 481.186 249.2 485.986 266.4C490.786 283.6 495.786 300.8 500.986 318C506.186 334.8 511.386 351.8 516.586 369C521.786 385.8 526.386 402.4 530.386 418.8C527.586 418.4 524.986 418.2 522.586 418.2C520.186 418.2 517.586 418.2 514.786 418.2C508.386 418.2 501.986 418.4 495.586 418.8C489.586 419.2 483.186 419.4 476.386 419.4C466.386 419.4 457.586 418.6 449.986 417L449.386 416.4C444.986 406.8 441.186 396.2 437.986 384.6C434.786 373 431.786 361.2 428.986 349.2C426.186 337.2 423.186 325.4 419.986 313.8C417.186 302.2 413.386 291.6 408.586 282L407.986 281.4C402.786 293 398.386 304.8 394.786 316.8C391.586 328.4 388.386 340.2 385.186 352.2C381.986 363.8 378.586 375.4 374.986 387C371.786 398.2 367.786 408.8 362.986 418.8C358.586 419.2 353.986 419.6 349.186 420C344.386 420 339.586 420 334.786 420C325.586 420 316.186 419.8 306.586 419.4C297.386 419 288.986 417.4 281.386 414.6C285.386 399.8 290.186 384 295.786 367.2C301.386 350.4 306.986 333.4 312.586 316.2C318.586 298.6 324.386 281 329.986 263.4C335.586 245.8 340.186 228.6 343.786 211.8C336.986 176.6 327.186 142.2 314.386 108.6C301.586 74.6 288.586 40.6 275.386 6.60002C288.186 5.80001 299.586 5.20001 309.586 4.80001C319.586 4.40002 328.186 4.20002 335.386 4.20002C346.186 4.20002 353.786 4.20002 358.186 4.20002C362.586 4.20002 365.386 5.20002 366.586 7.20002C368.986 15.6 371.986 25.8 375.586 37.8C379.186 49.8 382.786 62 386.386 74.4C389.986 86.8 393.386 99 396.586 111C400.186 122.6 403.386 132.2 406.186 139.8C409.786 131.8 413.386 121.8 416.986 109.8C420.986 97.8 424.786 85.4 428.386 72.6C431.986 59.8 435.386 47.2 438.586 34.8C441.786 22.4 444.786 11.8 447.586 3V2.40001C457.986 1.60002 470.186 1.00001 484.186 0.599994C498.186 0.199999 516.586 1.90735e-06 539.386 1.90735e-06H539.986C539.986 0.399997 539.786 0.599994 539.386 0.599994Z" fill="#0C0C0C"/>
</svg>
