<svg width="880" height="241" viewBox="0 0 880 241" fill="none" xmlns="http://www.w3.org/2000/svg">
<mask id="path-1-outside-1_317_27" maskUnits="userSpaceOnUse" x="-0.600098" y="-0.0999756" width="881" height="241" fill="black">
<rect fill="white" x="-0.600098" y="-0.0999756" width="881" height="241"/>
<path d="M40.5999 229.9C30.1999 229.9 22.4999 226.8 17.4999 220.6C12.4999 214.4 9.9999 206.1 9.9999 195.7V55.9C9.9999 40.7 14.0999 29.5 22.2999 22.3C30.6999 15.1 40.6999 11.5 52.2999 11.5C63.2999 11.5 72.5999 15.1 80.1999 22.3C87.9999 29.5 93.6999 40.9 97.2999 56.5L120.7 158.2H128.5L151.9 56.5C155.5 40.9 161.2 29.5 169 22.3C177 15.1 186.5 11.5 197.5 11.5C209.1 11.5 219 15.1 227.2 22.3C235.6 29.5 239.8 40.7 239.8 55.9V195.7C239.8 206.1 237.2 214.4 232 220.6C227 226.8 219.3 229.9 208.9 229.9C198.9 229.9 191.2 226.8 185.8 220.6C180.4 214.4 177.7 206.1 177.7 195.7V115C177.7 113 177.4 111.2 176.8 109.6C176.4 107.8 175.1 106.9 172.9 106.9C171.1 106.9 169.8 107.8 169 109.6C168.2 111.2 167.6 113 167.2 115L155.8 190.6C154.4 198.8 152.7 205.9 150.7 211.9C148.9 217.7 146 222.2 142 225.4C138 228.4 132.2 229.9 124.6 229.9C117.2 229.9 111.4 228.4 107.2 225.4C103.2 222.2 100.2 217.7 98.1999 211.9C96.3999 205.9 94.8999 198.8 93.6999 190.6L81.9999 115C81.7999 113 81.2999 111.2 80.4999 109.6C79.6999 107.8 78.2999 106.9 76.2999 106.9C74.2999 106.9 72.9999 107.8 72.3999 109.6C71.7999 111.2 71.4999 113 71.4999 115V195.7C71.4999 206.1 68.7999 214.4 63.3999 220.6C58.1999 226.8 50.5999 229.9 40.5999 229.9ZM274.023 166.9C281.423 157.1 289.623 148.7 298.623 141.7C307.623 134.5 317.623 127.5 328.623 120.7C323.623 115.1 318.123 110.1 312.123 105.7C306.323 101.3 300.423 96.8 294.423 92.2C288.623 87.4 283.023 81.8 277.623 75.4C272.423 68.8 268.823 61.9 266.823 54.7C264.823 47.3 264.823 40.2 266.823 33.4C269.023 26.6 273.423 21 280.023 16.6C287.223 11.6 294.523 9.80001 301.923 11.2C309.323 12.4 316.323 15.9 322.923 21.7C329.523 27.3 335.223 34.4 340.023 43C344.423 50.6 348.723 57.9 352.923 64.9C357.123 71.7 361.223 78 365.223 83.8C370.623 78.6 374.523 73.7 376.923 69.1C379.323 64.3 381.423 59.1 383.223 53.5C385.223 47.9 388.023 41.4 391.623 34C394.623 27.6 398.723 22.5 403.923 18.7C409.323 14.7 415.323 12.4 421.923 11.8C428.523 11.2 435.023 12.9 441.423 16.9C447.823 20.7 452.023 26 454.023 32.8C456.223 39.4 456.323 46.5 454.323 54.1C452.523 61.7 448.823 68.9 443.223 75.7C436.823 83.3 429.023 90.1 419.823 96.1C410.823 101.9 401.323 107.1 391.323 111.7C401.323 120.9 411.023 129.6 420.423 137.8C429.823 146 438.323 155.5 445.923 166.3C453.523 177.1 457.023 188 456.423 199C456.023 210 451.123 218.6 441.723 224.8C431.923 231 421.823 232.2 411.423 228.4C401.023 224.6 391.923 216.9 384.123 205.3C376.523 193.7 370.223 183.7 365.223 175.3C360.423 166.7 355.723 158.6 351.123 151C349.523 155 348.123 159.6 346.923 164.8C345.923 170 344.423 176 342.423 182.8C340.623 189.6 337.523 197.5 333.123 206.5C329.523 214.3 324.523 220.3 318.123 224.5C311.723 228.5 304.823 230.3 297.423 229.9C290.023 229.7 282.923 227.1 276.123 222.1C270.523 217.7 266.823 212.4 265.023 206.2C263.423 199.8 263.423 193.2 265.023 186.4C266.623 179.4 269.623 172.9 274.023 166.9ZM573.037 230.8C561.837 230.8 550.537 229.7 539.137 227.5C527.937 225.1 517.537 221.7 507.937 217.3C498.537 212.7 490.937 207.2 485.137 200.8C479.337 194.2 476.437 186.6 476.437 178C476.437 167 479.937 158.2 486.937 151.6C493.937 145 502.137 141.9 511.537 142.3C518.937 142.5 526.337 144.1 533.737 147.1C541.137 149.9 548.637 152.7 556.237 155.5C564.037 158.3 571.837 159.7 579.637 159.7C587.437 159.7 592.837 158.7 595.837 156.7C598.837 154.7 600.337 152 600.337 148.6C600.337 144.6 598.237 141.3 594.037 138.7C589.837 136.1 584.537 134.1 578.137 132.7L563.437 129.1C548.237 125.5 534.637 121.5 522.637 117.1C510.637 112.5 501.137 106.5 494.137 99.1C487.337 91.5 483.937 81.4 483.937 68.8C483.937 55 487.737 43.8 495.337 35.2C502.937 26.4 513.237 20 526.237 16C539.237 12 553.737 10 569.737 10C586.137 10 600.537 11.7 612.937 15.1C625.337 18.5 634.937 23.4 641.737 29.8C648.737 36.2 652.237 44 652.237 53.2C652.237 63 649.537 70.7 644.137 76.3C638.937 81.7 631.937 84.4 623.137 84.4C617.337 84.4 611.237 83.4 604.837 81.4C598.637 79.4 592.037 77.5 585.037 75.7C578.237 73.7 570.937 72.7 563.137 72.7C556.137 72.7 550.837 73.8 547.237 76C543.637 78 541.837 80.7 541.837 84.1C541.837 88.3 544.237 91.4 549.037 93.4C553.837 95.4 561.737 97.8 572.737 100.6L589.537 104.5C603.337 107.9 615.437 112 625.837 116.8C636.237 121.6 644.337 127.9 650.137 135.7C655.937 143.5 658.837 153.7 658.837 166.3C658.837 181.5 655.237 193.9 648.037 203.5C640.837 212.9 630.837 219.8 618.037 224.2C605.237 228.6 590.237 230.8 573.037 230.8ZM706.773 78.1C696.773 78.1 688.573 75.2 682.173 69.4C675.973 63.6 672.873 55.6 672.873 45.4C672.873 35.4 675.673 27.4 681.273 21.4C687.073 15.2 695.573 12.1 706.773 12.1H836.073C847.273 12.1 855.673 15.2 861.273 21.4C867.073 27.4 869.973 35.4 869.973 45.4C869.973 55.6 866.773 63.6 860.373 69.4C854.173 75.2 846.073 78.1 836.073 78.1C829.273 78.1 823.773 77.4 819.573 76C815.573 74.4 812.273 72.6 809.673 70.6C807.073 68.4 804.573 66.6 802.173 65.2C799.773 63.6 796.773 62.8 793.173 62.8L790.473 68.2C791.273 70 792.673 72.6 794.673 76C796.673 79.2 798.573 83.9 800.373 90.1C802.173 96.1 803.073 104.3 803.073 114.7V201.4C803.073 209.6 799.973 216.4 793.773 221.8C787.773 227.2 780.373 229.9 771.573 229.9C762.573 229.9 754.973 227.2 748.773 221.8C742.773 216.4 739.773 209.6 739.773 201.4V114.7C739.773 104.3 740.673 96.1 742.473 90.1C744.273 83.9 746.173 79.2 748.173 76C750.373 72.6 751.873 70 752.673 68.2L749.673 62.8C746.073 62.8 743.073 63.6 740.673 65.2C738.273 66.6 735.773 68.4 733.173 70.6C730.573 72.6 727.273 74.4 723.273 76C719.273 77.4 713.773 78.1 706.773 78.1Z"/>
</mask>
<path d="M40.5999 229.9C30.1999 229.9 22.4999 226.8 17.4999 220.6C12.4999 214.4 9.9999 206.1 9.9999 195.7V55.9C9.9999 40.7 14.0999 29.5 22.2999 22.3C30.6999 15.1 40.6999 11.5 52.2999 11.5C63.2999 11.5 72.5999 15.1 80.1999 22.3C87.9999 29.5 93.6999 40.9 97.2999 56.5L120.7 158.2H128.5L151.9 56.5C155.5 40.9 161.2 29.5 169 22.3C177 15.1 186.5 11.5 197.5 11.5C209.1 11.5 219 15.1 227.2 22.3C235.6 29.5 239.8 40.7 239.8 55.9V195.7C239.8 206.1 237.2 214.4 232 220.6C227 226.8 219.3 229.9 208.9 229.9C198.9 229.9 191.2 226.8 185.8 220.6C180.4 214.4 177.7 206.1 177.7 195.7V115C177.7 113 177.4 111.2 176.8 109.6C176.4 107.8 175.1 106.9 172.9 106.9C171.1 106.9 169.8 107.8 169 109.6C168.2 111.2 167.6 113 167.2 115L155.8 190.6C154.4 198.8 152.7 205.9 150.7 211.9C148.9 217.7 146 222.2 142 225.4C138 228.4 132.2 229.9 124.6 229.9C117.2 229.9 111.4 228.4 107.2 225.4C103.2 222.2 100.2 217.7 98.1999 211.9C96.3999 205.9 94.8999 198.8 93.6999 190.6L81.9999 115C81.7999 113 81.2999 111.2 80.4999 109.6C79.6999 107.8 78.2999 106.9 76.2999 106.9C74.2999 106.9 72.9999 107.8 72.3999 109.6C71.7999 111.2 71.4999 113 71.4999 115V195.7C71.4999 206.1 68.7999 214.4 63.3999 220.6C58.1999 226.8 50.5999 229.9 40.5999 229.9ZM274.023 166.9C281.423 157.1 289.623 148.7 298.623 141.7C307.623 134.5 317.623 127.5 328.623 120.7C323.623 115.1 318.123 110.1 312.123 105.7C306.323 101.3 300.423 96.8 294.423 92.2C288.623 87.4 283.023 81.8 277.623 75.4C272.423 68.8 268.823 61.9 266.823 54.7C264.823 47.3 264.823 40.2 266.823 33.4C269.023 26.6 273.423 21 280.023 16.6C287.223 11.6 294.523 9.80001 301.923 11.2C309.323 12.4 316.323 15.9 322.923 21.7C329.523 27.3 335.223 34.4 340.023 43C344.423 50.6 348.723 57.9 352.923 64.9C357.123 71.7 361.223 78 365.223 83.8C370.623 78.6 374.523 73.7 376.923 69.1C379.323 64.3 381.423 59.1 383.223 53.5C385.223 47.9 388.023 41.4 391.623 34C394.623 27.6 398.723 22.5 403.923 18.7C409.323 14.7 415.323 12.4 421.923 11.8C428.523 11.2 435.023 12.9 441.423 16.9C447.823 20.7 452.023 26 454.023 32.8C456.223 39.4 456.323 46.5 454.323 54.1C452.523 61.7 448.823 68.9 443.223 75.7C436.823 83.3 429.023 90.1 419.823 96.1C410.823 101.9 401.323 107.1 391.323 111.7C401.323 120.9 411.023 129.6 420.423 137.8C429.823 146 438.323 155.5 445.923 166.3C453.523 177.1 457.023 188 456.423 199C456.023 210 451.123 218.6 441.723 224.8C431.923 231 421.823 232.2 411.423 228.4C401.023 224.6 391.923 216.9 384.123 205.3C376.523 193.7 370.223 183.7 365.223 175.3C360.423 166.7 355.723 158.6 351.123 151C349.523 155 348.123 159.6 346.923 164.8C345.923 170 344.423 176 342.423 182.8C340.623 189.6 337.523 197.5 333.123 206.5C329.523 214.3 324.523 220.3 318.123 224.5C311.723 228.5 304.823 230.3 297.423 229.9C290.023 229.7 282.923 227.1 276.123 222.1C270.523 217.7 266.823 212.4 265.023 206.2C263.423 199.8 263.423 193.2 265.023 186.4C266.623 179.4 269.623 172.9 274.023 166.9ZM573.037 230.8C561.837 230.8 550.537 229.7 539.137 227.5C527.937 225.1 517.537 221.7 507.937 217.3C498.537 212.7 490.937 207.2 485.137 200.8C479.337 194.2 476.437 186.6 476.437 178C476.437 167 479.937 158.2 486.937 151.6C493.937 145 502.137 141.9 511.537 142.3C518.937 142.5 526.337 144.1 533.737 147.1C541.137 149.9 548.637 152.7 556.237 155.5C564.037 158.3 571.837 159.7 579.637 159.7C587.437 159.7 592.837 158.7 595.837 156.7C598.837 154.7 600.337 152 600.337 148.6C600.337 144.6 598.237 141.3 594.037 138.7C589.837 136.1 584.537 134.1 578.137 132.7L563.437 129.1C548.237 125.5 534.637 121.5 522.637 117.1C510.637 112.5 501.137 106.5 494.137 99.1C487.337 91.5 483.937 81.4 483.937 68.8C483.937 55 487.737 43.8 495.337 35.2C502.937 26.4 513.237 20 526.237 16C539.237 12 553.737 10 569.737 10C586.137 10 600.537 11.7 612.937 15.1C625.337 18.5 634.937 23.4 641.737 29.8C648.737 36.2 652.237 44 652.237 53.2C652.237 63 649.537 70.7 644.137 76.3C638.937 81.7 631.937 84.4 623.137 84.4C617.337 84.4 611.237 83.4 604.837 81.4C598.637 79.4 592.037 77.5 585.037 75.7C578.237 73.7 570.937 72.7 563.137 72.7C556.137 72.7 550.837 73.8 547.237 76C543.637 78 541.837 80.7 541.837 84.1C541.837 88.3 544.237 91.4 549.037 93.4C553.837 95.4 561.737 97.8 572.737 100.6L589.537 104.5C603.337 107.9 615.437 112 625.837 116.8C636.237 121.6 644.337 127.9 650.137 135.7C655.937 143.5 658.837 153.7 658.837 166.3C658.837 181.5 655.237 193.9 648.037 203.5C640.837 212.9 630.837 219.8 618.037 224.2C605.237 228.6 590.237 230.8 573.037 230.8ZM706.773 78.1C696.773 78.1 688.573 75.2 682.173 69.4C675.973 63.6 672.873 55.6 672.873 45.4C672.873 35.4 675.673 27.4 681.273 21.4C687.073 15.2 695.573 12.1 706.773 12.1H836.073C847.273 12.1 855.673 15.2 861.273 21.4C867.073 27.4 869.973 35.4 869.973 45.4C869.973 55.6 866.773 63.6 860.373 69.4C854.173 75.2 846.073 78.1 836.073 78.1C829.273 78.1 823.773 77.4 819.573 76C815.573 74.4 812.273 72.6 809.673 70.6C807.073 68.4 804.573 66.6 802.173 65.2C799.773 63.6 796.773 62.8 793.173 62.8L790.473 68.2C791.273 70 792.673 72.6 794.673 76C796.673 79.2 798.573 83.9 800.373 90.1C802.173 96.1 803.073 104.3 803.073 114.7V201.4C803.073 209.6 799.973 216.4 793.773 221.8C787.773 227.2 780.373 229.9 771.573 229.9C762.573 229.9 754.973 227.2 748.773 221.8C742.773 216.4 739.773 209.6 739.773 201.4V114.7C739.773 104.3 740.673 96.1 742.473 90.1C744.273 83.9 746.173 79.2 748.173 76C750.373 72.6 751.873 70 752.673 68.2L749.673 62.8C746.073 62.8 743.073 63.6 740.673 65.2C738.273 66.6 735.773 68.4 733.173 70.6C730.573 72.6 727.273 74.4 723.273 76C719.273 77.4 713.773 78.1 706.773 78.1Z" fill="#121212"/>
<path d="M17.4999 220.6L25.284 214.323H25.284L17.4999 220.6ZM22.2999 22.3L15.792 14.7074L15.7467 14.7463L15.7019 14.7856L22.2999 22.3ZM80.1999 22.3L73.3225 29.5595L73.3695 29.6041L73.4171 29.6481L80.1999 22.3ZM97.2999 56.5L107.045 54.2577L107.044 54.2514L97.2999 56.5ZM120.7 158.2L110.955 160.442L112.74 168.2H120.7V158.2ZM128.5 158.2V168.2H136.46L138.245 160.442L128.5 158.2ZM151.9 56.5L142.156 54.2514L142.155 54.2577L151.9 56.5ZM169 22.3L162.31 14.8671L162.263 14.9092L162.217 14.952L169 22.3ZM227.2 22.3L220.602 29.8144L220.647 29.8538L220.692 29.8926L227.2 22.3ZM232 220.6L224.338 214.174L224.276 214.248L224.216 214.323L232 220.6ZM176.8 109.6L167.038 111.769L167.19 112.454L167.437 113.111L176.8 109.6ZM169 109.6L177.944 114.072L178.046 113.869L178.138 113.661L169 109.6ZM167.2 115L157.394 113.039L157.347 113.273L157.312 113.509L167.2 115ZM155.8 190.6L165.657 192.283L165.674 192.187L165.688 192.091L155.8 190.6ZM150.7 211.9L141.213 208.738L141.18 208.837L141.149 208.936L150.7 211.9ZM142 225.4L148 233.4L148.125 233.306L148.247 233.209L142 225.4ZM107.2 225.4L100.953 233.209L101.166 233.379L101.388 233.537L107.2 225.4ZM98.1999 211.9L88.6216 214.773L88.68 214.968L88.7462 215.16L98.1999 211.9ZM93.6999 190.6L103.595 189.152L103.589 189.111L103.582 189.071L93.6999 190.6ZM81.9999 115L72.0495 115.995L72.0763 116.263L72.1176 116.529L81.9999 115ZM80.4999 109.6L71.3618 113.661L71.454 113.869L71.5556 114.072L80.4999 109.6ZM72.3999 109.6L81.7632 113.111L81.8282 112.938L81.8867 112.762L72.3999 109.6ZM63.3999 220.6L55.8591 214.032L55.7979 214.103L55.738 214.174L63.3999 220.6ZM40.5999 229.9V219.9C32.2268 219.9 27.8374 217.489 25.284 214.323L17.4999 220.6L9.71577 226.878C17.1624 236.111 28.173 239.9 40.5999 239.9V229.9ZM17.4999 220.6L25.284 214.323C22.1054 210.381 19.9999 204.521 19.9999 195.7H9.9999H-9.72152e-05C-9.72152e-05 207.679 2.89439 218.419 9.71577 226.878L17.4999 220.6ZM9.9999 195.7H19.9999V55.9H9.9999H-9.72152e-05V195.7H9.9999ZM9.9999 55.9H19.9999C19.9999 42.4037 23.6087 34.4586 28.8979 29.8144L22.2999 22.3L15.7019 14.7856C4.59106 24.5415 -9.72152e-05 38.9964 -9.72152e-05 55.9H9.9999ZM22.2999 22.3L28.8078 29.8926C35.302 24.3262 42.961 21.5 52.2999 21.5V11.5V1.50002C38.4388 1.50002 26.0978 5.87387 15.792 14.7074L22.2999 22.3ZM52.2999 11.5V21.5C60.8844 21.5 67.6813 24.2153 73.3225 29.5595L80.1999 22.3L87.0774 15.0405C77.5185 5.98471 65.7154 1.50002 52.2999 1.50002V11.5ZM80.1999 22.3L73.4171 29.6481C79.1649 34.9537 84.1924 44.1731 87.556 58.7486L97.2999 56.5L107.044 54.2514C103.207 37.6269 96.8349 24.0463 86.9827 14.952L80.1999 22.3ZM97.2999 56.5L87.5545 58.7423L110.955 160.442L120.7 158.2L130.445 155.958L107.045 54.2577L97.2999 56.5ZM120.7 158.2V168.2H128.5V158.2V148.2H120.7V158.2ZM128.5 158.2L138.245 160.442L161.645 58.7423L151.9 56.5L142.155 54.2577L118.755 155.958L128.5 158.2ZM151.9 56.5L161.644 58.7486C165.007 44.1732 170.035 34.9537 175.783 29.6481L169 22.3L162.217 14.952C152.365 24.0463 145.992 37.6269 142.156 54.2514L151.9 56.5ZM169 22.3L175.69 29.733C181.809 24.2253 188.91 21.5 197.5 21.5V11.5V1.50002C184.09 1.50002 172.191 5.97473 162.31 14.8671L169 22.3ZM197.5 11.5V21.5C206.838 21.5 214.348 24.323 220.602 29.8144L227.2 22.3L233.798 14.7856C223.652 5.87698 211.362 1.50002 197.5 1.50002V11.5ZM227.2 22.3L220.692 29.8926C226.134 34.557 229.8 42.4755 229.8 55.9H239.8H249.8C249.8 38.9245 245.066 24.4431 233.708 14.7074L227.2 22.3ZM239.8 55.9H229.8V195.7H239.8H249.8V55.9H239.8ZM239.8 195.7H229.8C229.8 204.434 227.64 210.237 224.338 214.174L232 220.6L239.662 227.026C246.76 218.563 249.8 207.766 249.8 195.7H239.8ZM232 220.6L224.216 214.323C221.662 217.489 217.273 219.9 208.9 219.9V229.9V239.9C221.327 239.9 232.337 236.111 239.784 226.878L232 220.6ZM208.9 229.9V219.9C201.11 219.9 196.436 217.585 193.341 214.032L185.8 220.6L178.259 227.168C185.964 236.015 196.69 239.9 208.9 239.9V229.9ZM185.8 220.6L193.341 214.032C189.912 210.095 187.7 204.345 187.7 195.7H177.7H167.7C167.7 207.855 170.888 218.705 178.259 227.168L185.8 220.6ZM177.7 195.7H187.7V115H177.7H167.7V195.7H177.7ZM177.7 115H187.7C187.7 112.001 187.249 108.985 186.163 106.089L176.8 109.6L167.437 113.111C167.551 113.415 167.7 113.999 167.7 115H177.7ZM176.8 109.6L186.562 107.431C185.912 104.509 184.277 101.472 181.217 99.3531C178.356 97.3725 175.262 96.9 172.9 96.9V106.9V116.9C172.737 116.9 171.394 116.878 169.833 115.797C168.073 114.578 167.287 112.891 167.038 111.769L176.8 109.6ZM172.9 106.9V96.9C170.257 96.9 167.43 97.5898 164.883 99.3531C162.394 101.076 160.825 103.372 159.862 105.539L169 109.6L178.138 113.661C177.975 114.029 177.456 114.974 176.267 115.797C175.02 116.66 173.742 116.9 172.9 116.9V106.9ZM169 109.6L160.056 105.128C158.807 107.625 157.945 110.287 157.394 113.039L167.2 115L177.006 116.961C177.255 115.713 177.593 114.775 177.944 114.072L169 109.6ZM167.2 115L157.312 113.509L145.912 189.109L155.8 190.6L165.688 192.091L177.088 116.491L167.2 115ZM155.8 190.6L145.943 188.917C144.603 196.762 143.011 203.344 141.213 208.738L150.7 211.9L160.187 215.062C162.389 208.456 164.197 200.838 165.657 192.283L155.8 190.6ZM150.7 211.9L141.149 208.936C139.829 213.189 137.921 215.857 135.753 217.591L142 225.4L148.247 233.209C154.079 228.543 157.97 222.211 160.251 214.864L150.7 211.9ZM142 225.4L136 217.4C134.423 218.583 131.1 219.9 124.6 219.9V229.9V239.9C133.3 239.9 141.577 238.217 148 233.4L142 225.4ZM124.6 229.9V219.9C118.415 219.9 114.924 218.629 113.012 217.263L107.2 225.4L101.388 233.537C107.875 238.172 115.985 239.9 124.6 239.9V229.9ZM107.2 225.4L113.447 217.591C111.194 215.789 109.16 213.008 107.654 208.64L98.1999 211.9L88.7462 215.16C91.2399 222.392 95.2054 228.611 100.953 233.209L107.2 225.4ZM98.1999 211.9L107.778 209.027C106.155 203.615 104.745 197.014 103.595 189.152L93.6999 190.6L83.8053 192.048C85.0548 200.586 86.6452 208.185 88.6216 214.773L98.1999 211.9ZM93.6999 190.6L103.582 189.071L91.8823 113.471L81.9999 115L72.1176 116.529L83.8176 192.129L93.6999 190.6ZM81.9999 115L91.9503 114.005C91.6441 110.943 90.8513 107.942 89.4442 105.128L80.4999 109.6L71.5556 114.072C71.7485 114.458 71.9557 115.057 72.0495 115.995L81.9999 115ZM80.4999 109.6L89.638 105.539C88.5936 103.189 86.8806 100.85 84.2575 99.1632C81.6445 97.4835 78.8266 96.9 76.2999 96.9V106.9V116.9C75.7732 116.9 74.6553 116.767 73.4423 115.987C72.2192 115.201 71.6062 114.211 71.3618 113.661L80.4999 109.6ZM76.2999 106.9V96.9C73.8057 96.9 70.85 97.472 68.1328 99.3531C65.3697 101.266 63.7566 103.907 62.9131 106.438L72.3999 109.6L81.8867 112.762C81.6432 113.493 80.9801 114.784 79.517 115.797C78.0998 116.778 76.7941 116.9 76.2999 116.9V106.9ZM72.3999 109.6L63.0366 106.089C61.9505 108.985 61.4999 112.001 61.4999 115H71.4999H81.4999C81.4999 113.999 81.6493 113.415 81.7632 113.111L72.3999 109.6ZM71.4999 115H61.4999V195.7H71.4999H81.4999V115H71.4999ZM71.4999 195.7H61.4999C61.4999 204.345 59.2882 210.095 55.8591 214.032L63.3999 220.6L70.9407 227.168C78.3116 218.705 81.4999 207.855 81.4999 195.7H71.4999ZM63.3999 220.6L55.738 214.174C52.8781 217.584 48.4041 219.9 40.5999 219.9V229.9V239.9C52.7957 239.9 63.5217 236.016 71.0618 227.026L63.3999 220.6ZM274.023 166.9L266.043 160.874L266.001 160.93L265.959 160.986L274.023 166.9ZM298.623 141.7L304.763 149.594L304.817 149.551L304.87 149.509L298.623 141.7ZM328.623 120.7L333.882 129.206L344.025 122.935L336.083 114.04L328.623 120.7ZM312.123 105.7L306.079 113.667L306.144 113.716L306.21 113.764L312.123 105.7ZM294.423 92.2L288.048 99.904L288.191 100.023L288.339 100.136L294.423 92.2ZM277.623 75.4L269.768 81.5887L269.872 81.7205L269.98 81.8487L277.623 75.4ZM266.823 54.7L257.17 57.3091L257.179 57.3428L257.188 57.3764L266.823 54.7ZM266.823 33.4L257.309 30.3218L257.268 30.4496L257.23 30.5784L266.823 33.4ZM280.023 16.6L285.57 24.9205L285.649 24.8679L285.727 24.8137L280.023 16.6ZM301.923 11.2L300.064 21.0257L300.193 21.0501L300.323 21.0711L301.923 11.2ZM322.923 21.7L316.322 29.2117L316.387 29.269L316.454 29.3251L322.923 21.7ZM340.023 43L331.291 47.8737L331.33 47.9423L331.369 48.0104L340.023 43ZM352.923 64.9L344.348 70.045L344.382 70.1002L344.415 70.155L352.923 64.9ZM365.223 83.8L356.991 89.4773L363.677 99.1718L372.16 91.0032L365.223 83.8ZM376.923 69.1L385.789 73.7257L385.829 73.6493L385.868 73.5722L376.923 69.1ZM383.223 53.5L373.806 50.1367L373.752 50.2875L373.703 50.4399L383.223 53.5ZM391.623 34L400.616 38.3747L400.647 38.3097L400.678 38.2443L391.623 34ZM403.923 18.7L409.824 26.7739L409.85 26.7548L409.876 26.7356L403.923 18.7ZM421.923 11.8L421.018 1.84108H421.018L421.923 11.8ZM441.423 16.9L436.123 25.38L436.22 25.4404L436.318 25.4986L441.423 16.9ZM454.023 32.8L444.43 35.6217L444.48 35.793L444.536 35.9623L454.023 32.8ZM454.323 54.1L444.653 51.5551L444.621 51.6749L444.593 51.7953L454.323 54.1ZM443.223 75.7L450.872 82.1414L450.908 82.0994L450.943 82.0571L443.223 75.7ZM419.823 96.1L425.24 104.506L425.263 104.491L425.286 104.476L419.823 96.1ZM391.323 111.7L387.144 102.615L373.501 108.891L384.553 119.059L391.323 111.7ZM445.923 166.3L437.745 172.055H437.745L445.923 166.3ZM456.423 199L446.438 198.455L446.433 198.546L446.43 198.637L456.423 199ZM441.723 224.8L447.07 233.251L447.15 233.2L447.229 233.148L441.723 224.8ZM411.423 228.4L414.855 219.007V219.007L411.423 228.4ZM384.123 205.3L375.759 210.78L375.792 210.83L375.825 210.88L384.123 205.3ZM365.223 175.3L356.491 180.174L356.559 180.295L356.63 180.415L365.223 175.3ZM351.123 151L359.678 145.822L349.29 128.658L341.839 147.286L351.123 151ZM346.923 164.8L337.179 162.551L337.138 162.731L337.103 162.912L346.923 164.8ZM342.423 182.8L332.83 179.978L332.791 180.109L332.756 180.241L342.423 182.8ZM333.123 206.5L324.139 202.108L324.091 202.208L324.044 202.309L333.123 206.5ZM318.123 224.5L323.423 232.98L323.517 232.921L323.61 232.861L318.123 224.5ZM297.423 229.9L297.963 219.915L297.828 219.907L297.694 219.904L297.423 229.9ZM276.123 222.1L269.945 229.963L270.071 230.062L270.199 230.157L276.123 222.1ZM265.023 206.2L255.322 208.625L255.367 208.808L255.42 208.988L265.023 206.2ZM265.023 186.4L274.758 188.69L274.765 188.659L274.772 188.628L265.023 186.4ZM274.023 166.9L282.004 172.926C288.915 163.773 296.507 156.015 304.763 149.594L298.623 141.7L292.484 133.807C282.74 141.385 273.931 150.427 266.043 160.874L274.023 166.9ZM298.623 141.7L304.87 149.509C313.52 142.589 323.184 135.819 333.882 129.206L328.623 120.7L323.365 112.194C312.062 119.181 301.727 126.411 292.376 133.891L298.623 141.7ZM328.623 120.7L336.083 114.04C330.622 107.924 324.605 102.452 318.037 97.636L312.123 105.7L306.21 113.764C311.642 117.748 316.625 122.276 321.164 127.36L328.623 120.7ZM312.123 105.7L318.167 97.7331C312.381 93.3437 306.495 88.854 300.508 84.264L294.423 92.2L288.339 100.136C294.352 104.746 300.265 109.256 306.079 113.667L312.123 105.7ZM294.423 92.2L300.799 84.4961C295.506 80.1154 290.324 74.946 285.266 68.9513L277.623 75.4L269.98 81.8487C275.722 88.6541 281.741 94.6846 288.048 99.904L294.423 92.2ZM277.623 75.4L285.478 69.2113C280.997 63.5232 278.062 57.7968 276.459 52.0236L266.823 54.7L257.188 57.3764C259.584 66.0032 263.85 74.0768 269.768 81.5887L277.623 75.4ZM266.823 54.7L276.477 52.0909C274.918 46.3215 274.98 41.1077 276.417 36.2217L266.823 33.4L257.23 30.5784C254.667 39.2923 254.729 48.2786 257.17 57.3091L266.823 54.7ZM266.823 33.4L276.338 36.4782C277.767 32.0599 280.627 28.2158 285.57 24.9205L280.023 16.6L274.476 8.27951C266.219 13.7843 260.279 21.1401 257.309 30.3218L266.823 33.4ZM280.023 16.6L285.727 24.8137C291.116 21.0717 295.733 20.2063 300.064 21.0257L301.923 11.2L303.782 1.37431C293.313 -0.606308 283.331 2.12827 274.319 8.38632L280.023 16.6ZM301.923 11.2L300.323 21.0711C305.568 21.9216 310.887 24.4356 316.322 29.2117L322.923 21.7L329.524 14.1884C321.759 7.36446 313.079 2.87842 303.524 1.32896L301.923 11.2ZM322.923 21.7L316.454 29.3251C322.024 34.0517 326.995 40.1763 331.291 47.8737L340.023 43L348.755 38.1264C343.452 28.6237 337.022 20.5483 329.393 14.0749L322.923 21.7ZM340.023 43L331.369 48.0104C335.793 55.6521 340.12 62.9971 344.348 70.045L352.923 64.9L361.498 59.7551C357.327 52.8029 353.053 45.5479 348.678 37.9897L340.023 43ZM352.923 64.9L344.415 70.155C348.692 77.0795 352.884 83.522 356.991 89.4773L365.223 83.8L373.455 78.1227C369.563 72.478 365.554 66.3206 361.431 59.6451L352.923 64.9ZM365.223 83.8L372.16 91.0032C378.023 85.3572 382.721 79.6064 385.789 73.7257L376.923 69.1L368.057 64.4744C366.326 67.7936 363.224 71.8428 358.287 76.5968L365.223 83.8ZM376.923 69.1L385.868 73.5722C388.516 68.2759 390.803 62.5991 392.744 56.5601L383.223 53.5L373.703 50.4399C372.044 55.6009 370.131 60.3242 367.979 64.6279L376.923 69.1ZM383.223 53.5L392.641 56.8634C394.481 51.7103 397.12 45.5604 400.616 38.3747L391.623 34L382.631 29.6254C378.927 37.2396 375.966 44.0898 373.806 50.1367L383.223 53.5ZM391.623 34L400.678 38.2443C403.036 33.2139 406.109 29.4883 409.824 26.7739L403.923 18.7L398.023 10.6261C391.338 15.5117 386.211 21.9862 382.569 29.7557L391.623 34ZM403.923 18.7L409.876 26.7356C413.823 23.8113 418.082 22.1904 422.829 21.7589L421.923 11.8L421.018 1.84108C412.564 2.6096 404.823 5.5887 397.971 10.6644L403.923 18.7ZM421.923 11.8L422.829 21.7589C426.958 21.3835 431.306 22.3691 436.123 25.38L441.423 16.9L446.723 8.42003C438.741 3.43094 430.088 1.01649 421.018 1.84108L421.923 11.8ZM441.423 16.9L436.318 25.4986C440.666 28.08 443.181 31.3754 444.43 35.6217L454.023 32.8L463.617 29.9784C460.866 20.6246 454.981 13.32 446.529 8.30147L441.423 16.9ZM454.023 32.8L444.536 35.9623C446.044 40.4862 446.224 45.5836 444.653 51.5551L454.323 54.1L463.994 56.6449C466.423 47.4164 466.402 38.3138 463.51 29.6377L454.023 32.8ZM454.323 54.1L444.593 51.7953C443.187 57.7283 440.258 63.5704 435.504 69.343L443.223 75.7L450.943 82.0571C457.389 74.2296 461.859 65.6717 464.054 56.4047L454.323 54.1ZM443.223 75.7L435.574 69.2587C429.867 76.036 422.827 82.2026 414.361 87.7239L419.823 96.1L425.286 104.476C435.22 97.9974 443.78 90.5641 450.872 82.1414L443.223 75.7ZM419.823 96.1L414.406 87.6943C405.813 93.232 396.728 98.2066 387.144 102.615L391.323 111.7L395.502 120.785C405.919 115.993 415.833 110.568 425.24 104.506L419.823 96.1ZM391.323 111.7L384.553 119.059C394.612 128.314 404.378 137.073 413.85 145.336L420.423 137.8L426.997 130.264C417.669 122.127 408.035 113.486 398.094 104.341L391.323 111.7ZM420.423 137.8L413.85 145.336C422.611 152.979 430.58 161.872 437.745 172.055L445.923 166.3L454.101 160.545C446.067 149.128 437.036 139.021 426.997 130.264L420.423 137.8ZM445.923 166.3L437.745 172.055C444.318 181.396 446.893 190.12 446.438 198.455L456.423 199L466.409 199.545C467.154 185.88 462.728 172.804 454.101 160.545L445.923 166.3ZM456.423 199L446.43 198.637C446.151 206.319 442.993 211.983 436.217 216.452L441.723 224.8L447.229 233.148C459.254 225.217 465.896 213.681 466.417 199.363L456.423 199ZM441.723 224.8L436.377 216.349C429.054 220.982 422.185 221.685 414.855 219.007L411.423 228.4L407.991 237.793C421.462 242.715 434.793 241.018 447.07 233.251L441.723 224.8ZM411.423 228.4L414.855 219.007C406.907 216.103 399.355 210.031 392.422 199.72L384.123 205.3L375.825 210.88C384.492 223.769 395.14 233.097 407.991 237.793L411.423 228.4ZM384.123 205.3L392.488 199.82C384.937 188.295 378.72 178.423 373.816 170.185L365.223 175.3L356.63 180.415C361.727 188.977 368.11 199.105 375.759 210.78L384.123 205.3ZM365.223 175.3L373.955 170.426C369.104 161.735 364.345 153.532 359.678 145.822L351.123 151L342.568 156.178C347.101 163.668 351.743 171.665 356.491 180.174L365.223 175.3ZM351.123 151L341.839 147.286C340.01 151.859 338.469 156.965 337.179 162.551L346.923 164.8L356.667 167.049C357.778 162.235 359.037 158.141 360.408 154.714L351.123 151ZM346.923 164.8L337.103 162.912C336.18 167.712 334.767 173.39 332.83 179.978L342.423 182.8L352.017 185.622C354.079 178.61 355.667 172.288 356.743 166.688L346.923 164.8ZM342.423 182.8L332.756 180.241C331.177 186.206 328.362 193.47 324.139 202.108L333.123 206.5L342.107 210.892C346.684 201.53 350.069 192.994 352.09 185.359L342.423 182.8ZM333.123 206.5L324.044 202.309C321.129 208.624 317.287 213.088 312.637 216.14L318.123 224.5L323.61 232.861C331.76 227.512 337.917 219.976 342.203 210.691L333.123 206.5ZM318.123 224.5L312.823 216.02C308.134 218.951 303.268 220.201 297.963 219.915L297.423 229.9L296.884 239.885C306.379 240.399 315.312 238.049 323.423 232.98L318.123 224.5ZM297.423 229.9L297.694 219.904C292.609 219.766 287.443 218.011 282.047 214.044L276.123 222.1L270.199 230.157C278.404 236.189 287.438 239.634 297.153 239.896L297.423 229.9ZM276.123 222.1L282.302 214.237C278.168 210.989 275.784 207.397 274.627 203.412L265.023 206.2L255.42 208.988C257.863 217.403 262.879 224.411 269.945 229.963L276.123 222.1ZM265.023 206.2L274.725 203.775C273.534 199.013 273.501 194.032 274.758 188.69L265.023 186.4L255.289 184.11C253.346 192.368 253.312 200.587 255.322 208.625L265.023 206.2ZM265.023 186.4L274.772 188.628C276.057 183.007 278.465 177.754 282.087 172.814L274.023 166.9L265.959 160.986C260.782 168.046 257.19 175.793 255.275 184.172L265.023 186.4ZM539.137 227.5L537.041 237.278L537.141 237.299L537.242 237.319L539.137 227.5ZM507.937 217.3L503.541 226.282L503.655 226.338L503.77 226.391L507.937 217.3ZM485.137 200.8L477.625 207.401L477.675 207.459L477.727 207.515L485.137 200.8ZM486.937 151.6L480.077 144.324V144.324L486.937 151.6ZM511.537 142.3L511.111 152.291L511.189 152.294L511.266 152.296L511.537 142.3ZM533.737 147.1L529.98 156.367L530.088 156.411L530.198 156.453L533.737 147.1ZM556.237 155.5L552.78 164.883L552.819 164.898L552.858 164.912L556.237 155.5ZM595.837 156.7L590.29 148.38V148.38L595.837 156.7ZM594.037 138.7L599.3 130.197V130.197L594.037 138.7ZM578.137 132.7L575.758 142.413L575.878 142.443L576 142.469L578.137 132.7ZM563.437 129.1L565.815 119.387L565.778 119.378L565.741 119.369L563.437 129.1ZM522.637 117.1L519.057 126.437L519.125 126.464L519.194 126.489L522.637 117.1ZM494.137 99.1L486.684 105.768L486.777 105.871L486.872 105.972L494.137 99.1ZM495.337 35.2L502.83 41.822L502.868 41.7793L502.905 41.7362L495.337 35.2ZM526.237 16L523.296 6.44221V6.44221L526.237 16ZM612.937 15.1L610.292 24.7441V24.7441L612.937 15.1ZM641.737 29.8L634.883 37.082L634.936 37.1315L634.989 37.1803L641.737 29.8ZM644.137 76.3L636.938 69.3587L636.933 69.3636L644.137 76.3ZM604.837 81.4L601.767 90.9171L601.81 90.9312L601.854 90.9448L604.837 81.4ZM585.037 75.7L582.215 85.2937L582.38 85.3422L582.546 85.3849L585.037 75.7ZM547.237 76L552.093 84.7416L552.274 84.6409L552.451 84.5328L547.237 76ZM549.037 93.4L545.19 102.631V102.631L549.037 93.4ZM572.737 100.6L570.27 110.291L570.372 110.317L570.475 110.341L572.737 100.6ZM589.537 104.5L591.929 94.7904L591.864 94.7743L591.798 94.759L589.537 104.5ZM625.837 116.8L621.646 125.88V125.88L625.837 116.8ZM650.137 135.7L642.112 141.667V141.667L650.137 135.7ZM648.037 203.5L655.975 209.581L656.006 209.541L656.037 209.5L648.037 203.5ZM618.037 224.2L614.786 214.743V214.743L618.037 224.2ZM573.037 230.8V220.8C562.495 220.8 551.83 219.765 541.031 217.681L539.137 227.5L537.242 237.319C549.243 239.635 561.178 240.8 573.037 240.8V230.8ZM539.137 227.5L541.232 217.722C530.686 215.462 520.987 212.281 512.103 208.209L507.937 217.3L503.77 226.391C514.087 231.119 525.188 234.738 537.041 237.278L539.137 227.5ZM507.937 217.3L512.332 208.318C503.837 204.161 497.335 199.369 492.546 194.085L485.137 200.8L477.727 207.515C484.538 215.031 493.236 221.239 503.541 226.282L507.937 217.3ZM485.137 200.8L492.648 194.199C488.414 189.38 486.437 184.113 486.437 178H476.437H466.437C466.437 189.087 470.259 199.02 477.625 207.401L485.137 200.8ZM476.437 178H486.437C486.437 169.321 489.095 163.309 493.797 158.876L486.937 151.6L480.077 144.324C470.778 153.091 466.437 164.679 466.437 178H476.437ZM486.937 151.6L493.797 158.876C498.884 154.08 504.474 152.009 511.111 152.291L511.537 142.3L511.962 132.309C499.799 131.792 488.989 135.92 480.077 144.324L486.937 151.6ZM511.537 142.3L511.266 152.296C517.379 152.462 523.601 153.782 529.98 156.367L533.737 147.1L537.494 137.833C529.072 134.418 520.494 132.538 511.807 132.304L511.537 142.3ZM533.737 147.1L530.198 156.453C537.626 159.263 545.153 162.074 552.78 164.883L556.237 155.5L559.694 146.117C552.12 143.326 544.648 140.537 537.276 137.747L533.737 147.1ZM556.237 155.5L552.858 164.912C561.674 168.077 570.615 169.7 579.637 169.7V159.7V149.7C573.059 149.7 566.399 148.523 559.615 146.088L556.237 155.5ZM579.637 159.7V169.7C587.587 169.7 595.693 168.814 601.384 165.021L595.837 156.7L590.29 148.38C590.348 148.341 589.712 148.747 587.716 149.117C585.808 149.47 583.158 149.7 579.637 149.7V159.7ZM595.837 156.7L601.384 165.021C606.965 161.3 610.337 155.578 610.337 148.6H600.337H590.337C590.337 148.711 590.325 148.711 590.345 148.631C590.354 148.593 590.369 148.543 590.391 148.486C590.414 148.428 590.44 148.372 590.47 148.319C590.533 148.206 590.584 148.151 590.582 148.153C590.576 148.159 590.496 148.242 590.29 148.38L595.837 156.7ZM600.337 148.6H610.337C610.337 140.292 605.646 134.126 599.3 130.197L594.037 138.7L588.773 147.203C589.92 147.913 590.267 148.403 590.325 148.494C590.352 148.536 590.343 148.53 590.333 148.496C590.323 148.463 590.337 148.485 590.337 148.6H600.337ZM594.037 138.7L599.3 130.197C593.881 126.842 587.441 124.499 580.274 122.931L578.137 132.7L576 142.469C581.633 143.701 585.793 145.358 588.773 147.203L594.037 138.7ZM578.137 132.7L580.515 122.987L565.815 119.387L563.437 129.1L561.058 138.813L575.758 142.413L578.137 132.7ZM563.437 129.1L565.741 119.369C550.846 115.841 537.636 111.949 526.079 107.711L522.637 117.1L519.194 126.489C531.637 131.051 545.627 135.159 561.132 138.831L563.437 129.1ZM522.637 117.1L526.216 107.763C515.258 103.562 507.14 98.2947 501.401 92.228L494.137 99.1L486.872 105.972C495.133 114.705 506.015 121.438 519.057 126.437L522.637 117.1ZM494.137 99.1L501.589 92.4321C496.792 87.0709 493.937 79.544 493.937 68.8H483.937H473.937C473.937 83.2561 477.881 95.9291 486.684 105.768L494.137 99.1ZM483.937 68.8H493.937C493.937 56.9207 497.158 48.2399 502.83 41.822L495.337 35.2L487.843 28.578C478.315 39.3602 473.937 53.0793 473.937 68.8H483.937ZM495.337 35.2L502.905 41.7362C509.081 34.585 517.663 29.1006 529.177 25.5578L526.237 16L523.296 6.44221C508.81 10.8994 496.792 18.215 487.768 28.6638L495.337 35.2ZM526.237 16L529.177 25.5578C541.074 21.8973 554.563 20 569.737 20V10V1.52588e-05C552.911 1.52588e-05 537.399 2.10271 523.296 6.44221L526.237 16ZM569.737 10V20C585.476 20 598.953 21.6348 610.292 24.7441L612.937 15.1L615.581 5.45598C602.121 1.76527 586.797 1.52588e-05 569.737 1.52588e-05V10ZM612.937 15.1L610.292 24.7441C621.681 27.8667 629.635 32.1429 634.883 37.082L641.737 29.8L648.59 22.518C640.238 14.6571 628.992 9.1333 615.581 5.45598L612.937 15.1ZM641.737 29.8L634.989 37.1803C639.99 41.7524 642.237 46.9047 642.237 53.2H652.237H662.237C662.237 41.0953 657.484 30.6477 648.484 22.4197L641.737 29.8ZM652.237 53.2H642.237C642.237 61.1153 640.105 66.0746 636.938 69.3587L644.137 76.3L651.335 83.2414C658.968 75.3255 662.237 64.8847 662.237 53.2H652.237ZM644.137 76.3L636.933 69.3636C633.946 72.4655 629.731 74.4 623.137 74.4V84.4V94.4C634.142 94.4 643.927 90.9346 651.34 83.2364L644.137 76.3ZM623.137 84.4V74.4C618.492 74.4 613.401 73.5995 607.819 71.8552L604.837 81.4L601.854 90.9448C609.072 93.2005 616.181 94.4 623.137 94.4V84.4ZM604.837 81.4L607.907 71.8829C601.496 69.8149 594.701 67.8599 587.527 66.0151L585.037 75.7L582.546 85.3849C589.372 87.1402 595.777 88.9851 601.767 90.9171L604.837 81.4ZM585.037 75.7L587.858 66.1064C580.055 63.8113 571.797 62.7 563.137 62.7V72.7V82.7C570.076 82.7 576.418 83.5887 582.215 85.2937L585.037 75.7ZM563.137 72.7V62.7C555.38 62.7 547.913 63.8674 542.022 67.4672L547.237 76L552.451 84.5328C553.761 83.7326 556.894 82.7 563.137 82.7V72.7ZM547.237 76L542.38 67.2585C536.401 70.5804 531.837 76.2415 531.837 84.1H541.837H551.837C551.837 84.142 551.83 84.2936 551.765 84.5114C551.7 84.733 551.603 84.9277 551.507 85.072C551.318 85.3562 551.321 85.1707 552.093 84.7416L547.237 76ZM541.837 84.1H531.837C531.837 88.2474 533.073 92.2656 535.729 95.6967C538.282 98.9937 541.695 101.174 545.19 102.631L549.037 93.4L552.883 84.1693C551.578 83.6255 551.391 83.2564 551.544 83.4533C551.627 83.561 551.723 83.7279 551.786 83.9205C551.847 84.1054 551.837 84.1874 551.837 84.1H541.837ZM549.037 93.4L545.19 102.631C550.711 104.931 559.216 107.477 570.27 110.291L572.737 100.6L575.203 90.909C564.258 88.1229 556.963 85.8692 552.883 84.1693L549.037 93.4ZM572.737 100.6L570.475 110.341L587.275 114.241L589.537 104.5L591.798 94.759L574.998 90.859L572.737 100.6ZM589.537 104.5L587.144 114.21C600.467 117.492 611.942 121.401 621.646 125.88L625.837 116.8L630.027 107.72C618.931 102.599 606.206 98.3079 591.929 94.7904L589.537 104.5ZM625.837 116.8L621.646 125.88C630.799 130.104 637.474 135.43 642.112 141.667L650.137 135.7L658.161 129.733C651.199 120.37 641.674 113.096 630.027 107.72L625.837 116.8ZM650.137 135.7L642.112 141.667C646.295 147.292 648.837 155.212 648.837 166.3H658.837H668.837C668.837 152.188 665.578 139.708 658.161 129.733L650.137 135.7ZM658.837 166.3H648.837C648.837 179.919 645.627 190.046 640.037 197.5L648.037 203.5L656.037 209.5C664.846 197.754 668.837 183.081 668.837 166.3H658.837ZM648.037 203.5L640.098 197.419C634.259 205.042 625.999 210.889 614.786 214.743L618.037 224.2L621.287 233.657C635.674 228.711 647.414 220.758 655.975 209.581L648.037 203.5ZM618.037 224.2L614.786 214.743C603.271 218.701 589.416 220.8 573.037 220.8V230.8V240.8C591.057 240.8 607.202 238.499 621.287 233.657L618.037 224.2ZM682.173 69.4L675.342 76.7027L675.4 76.7568L675.458 76.8099L682.173 69.4ZM681.273 21.4L673.971 14.5684L673.963 14.5768L681.273 21.4ZM861.273 21.4L853.852 28.1029L853.966 28.2285L854.083 28.3502L861.273 21.4ZM860.373 69.4L853.658 61.9901L853.6 62.0433L853.542 62.0973L860.373 69.4ZM819.573 76L815.859 85.2848L816.132 85.3939L816.411 85.4869L819.573 76ZM809.673 70.6L803.214 78.2339L803.392 78.3843L803.576 78.5263L809.673 70.6ZM802.173 65.2L796.626 73.5205L796.876 73.6868L797.135 73.8378L802.173 65.2ZM793.173 62.8V52.8H786.993L784.229 58.3279L793.173 62.8ZM790.473 68.2L781.529 63.7279L779.419 67.9489L781.335 72.2614L790.473 68.2ZM794.673 76L786.054 81.0702L786.122 81.1861L786.193 81.3L794.673 76ZM800.373 90.1L790.77 92.8881L790.782 92.9309L790.795 92.9735L800.373 90.1ZM793.773 221.8L787.206 214.259L787.144 214.313L787.084 214.367L793.773 221.8ZM748.773 221.8L742.084 229.233L742.144 229.287L742.206 229.341L748.773 221.8ZM742.473 90.1L752.052 92.9735L752.064 92.9309L752.077 92.8881L742.473 90.1ZM748.173 76L739.778 70.5675L739.735 70.6334L739.693 70.7L748.173 76ZM752.673 68.2L761.811 72.2614L763.837 67.7036L761.415 63.3436L752.673 68.2ZM749.673 62.8L758.415 57.9436L755.557 52.8H749.673V62.8ZM740.673 65.2L745.712 73.8378L745.971 73.6868L746.22 73.5205L740.673 65.2ZM733.173 70.6L739.27 78.5263L739.455 78.3843L739.633 78.2339L733.173 70.6ZM723.273 76L726.577 85.4386L726.784 85.3662L726.987 85.2848L723.273 76ZM706.773 78.1V68.1C698.838 68.1 693.162 65.8626 688.889 61.9901L682.173 69.4L675.458 76.8099C683.985 84.5375 694.709 88.1 706.773 88.1V78.1ZM682.173 69.4L689.005 62.0973C685.228 58.564 682.873 53.4351 682.873 45.4H672.873H662.873C662.873 57.765 666.719 68.636 675.342 76.7027L682.173 69.4ZM672.873 45.4H682.873C682.873 37.3498 685.073 31.9852 688.584 28.2232L681.273 21.4L673.963 14.5768C666.274 22.8148 662.873 33.4502 662.873 45.4H672.873ZM681.273 21.4L688.576 28.2316C691.934 24.642 697.415 22.1 706.773 22.1V12.1V2.10002C693.731 2.10002 682.213 5.758 673.971 14.5684L681.273 21.4ZM706.773 12.1V22.1H836.073V12.1V2.10002H706.773V12.1ZM836.073 12.1V22.1C845.454 22.1 850.733 24.6498 853.852 28.1029L861.273 21.4L868.694 14.6971C860.613 5.75024 849.092 2.10002 836.073 2.10002V12.1ZM861.273 21.4L854.083 28.3502C857.733 32.1256 859.973 37.4456 859.973 45.4H869.973H879.973C879.973 33.3544 876.414 22.6744 868.463 14.4498L861.273 21.4ZM869.973 45.4H859.973C859.973 53.3354 857.586 58.4308 853.658 61.9901L860.373 69.4L867.089 76.8099C875.961 68.7692 879.973 57.8646 879.973 45.4H869.973ZM860.373 69.4L853.542 62.0973C849.518 65.8615 844.017 68.1 836.073 68.1V78.1V88.1C848.129 88.1 858.829 84.5385 867.205 76.7027L860.373 69.4ZM836.073 78.1V68.1C829.836 68.1 825.523 67.4424 822.736 66.5132L819.573 76L816.411 85.4869C822.024 87.3577 828.71 88.1 836.073 88.1V78.1ZM819.573 76L823.287 66.7153C819.89 65.3564 817.456 63.9701 815.77 62.6738L809.673 70.6L803.576 78.5263C807.091 81.2299 811.257 83.4437 815.859 85.2848L819.573 76ZM809.673 70.6L816.133 62.9662C813.184 60.4713 810.211 58.3117 807.212 56.5622L802.173 65.2L797.135 73.8378C798.936 74.8884 800.962 76.3287 803.214 78.2339L809.673 70.6ZM802.173 65.2L807.72 56.8795C803.312 53.9406 798.257 52.8 793.173 52.8V62.8V72.8C795.29 72.8 796.235 73.2594 796.626 73.5205L802.173 65.2ZM793.173 62.8L784.229 58.3279L781.529 63.7279L790.473 68.2L799.418 72.6721L802.118 67.2721L793.173 62.8ZM790.473 68.2L781.335 72.2614C782.375 74.6 784.012 77.5988 786.054 81.0702L794.673 76L803.293 70.9298C801.335 67.6012 800.172 65.4 799.611 64.1386L790.473 68.2ZM794.673 76L786.193 81.3C787.479 83.3574 789.072 87.041 790.77 92.8881L800.373 90.1L809.977 87.3119C808.074 80.7591 805.867 75.0426 803.153 70.7L794.673 76ZM800.373 90.1L790.795 92.9735C792.192 97.6297 793.073 104.722 793.073 114.7H803.073H813.073C813.073 103.878 812.155 94.5703 809.952 87.2265L800.373 90.1ZM803.073 114.7H793.073V201.4H803.073H813.073V114.7H803.073ZM803.073 201.4H793.073C793.073 206.7 791.232 210.753 787.206 214.259L793.773 221.8L800.341 229.341C808.715 222.048 813.073 212.501 813.073 201.4H803.073ZM793.773 221.8L787.084 214.367C783.092 217.96 778.144 219.9 771.573 219.9V229.9V239.9C782.602 239.9 792.455 236.44 800.463 229.233L793.773 221.8ZM771.573 229.9V219.9C764.741 219.9 759.543 217.919 755.341 214.259L748.773 221.8L742.206 229.341C750.404 236.481 760.405 239.9 771.573 239.9V229.9ZM748.773 221.8L755.463 214.367C751.608 210.898 749.773 206.816 749.773 201.4H739.773H729.773C729.773 212.384 733.939 221.903 742.084 229.233L748.773 221.8ZM739.773 201.4H749.773V114.7H739.773H729.773V201.4H739.773ZM739.773 114.7H749.773C749.773 104.722 750.655 97.6297 752.052 92.9735L742.473 90.1L732.895 87.2265C730.692 94.5703 729.773 103.878 729.773 114.7H739.773ZM742.473 90.1L752.077 92.8881C753.774 87.041 755.367 83.3574 756.653 81.3L748.173 76L739.693 70.7C736.979 75.0426 734.772 80.7591 732.87 87.3119L742.473 90.1ZM748.173 76L756.569 81.4325C758.822 77.9512 760.679 74.8102 761.811 72.2614L752.673 68.2L743.535 64.1387C743.068 65.1899 741.925 67.2489 739.778 70.5675L748.173 76ZM752.673 68.2L761.415 63.3436L758.415 57.9436L749.673 62.8L740.932 67.6564L743.932 73.0564L752.673 68.2ZM749.673 62.8V52.8C744.59 52.8 739.535 53.9406 735.126 56.8795L740.673 65.2L746.22 73.5205C746.612 73.2594 747.557 72.8 749.673 72.8V62.8ZM740.673 65.2L735.635 56.5622C732.636 58.3117 729.662 60.4713 726.714 62.9662L733.173 70.6L739.633 78.2339C741.884 76.3287 743.911 74.8884 745.712 73.8378L740.673 65.2ZM733.173 70.6L727.076 62.6738C725.391 63.9701 722.957 65.3564 719.559 66.7153L723.273 76L726.987 85.2848C731.59 83.4437 735.756 81.2299 739.27 78.5263L733.173 70.6ZM723.273 76L719.97 66.5614C717.499 67.4263 713.282 68.1 706.773 68.1V78.1V88.1C714.265 88.1 721.048 87.3738 726.577 85.4386L723.273 76Z" fill="white" mask="url(#path-1-outside-1_317_27)"/>
</svg>
