<svg width="642" height="269" viewBox="0 0 642 269" fill="none" xmlns="http://www.w3.org/2000/svg">
<path d="M344.412 197.868C344.412 199.95 344.527 203.189 344.759 207.584C344.99 211.863 345.163 215.969 345.279 219.902C345.394 223.834 345.452 228.229 345.452 233.087C345.568 237.829 345.394 242.167 344.932 246.099C344.585 249.916 344.007 253.559 343.198 257.029C342.388 260.383 341.117 262.986 339.383 264.836C337.764 266.687 335.741 267.612 333.313 267.612H254.233C248.684 263.333 245.909 247.371 245.909 219.728C245.909 209.666 245.967 197.579 246.083 183.468C246.198 169.242 246.256 159.121 246.256 153.107V140.963C246.256 139.922 246.14 137.955 245.909 135.064C245.794 132.057 245.794 129.743 245.909 128.124C241.285 144.895 235.62 168.895 228.914 200.124C222.209 231.352 217.584 252.229 215.041 262.754C213.884 265.993 208.566 267.612 199.086 267.612H137.695C130.18 267.612 125.787 265.646 124.515 261.713L107.867 189.193C106.364 181.791 104.688 174.1 102.838 166.119C101.104 158.138 99.0227 149.059 96.5948 138.881C94.1669 128.702 92.3749 121.184 91.2188 116.327C89.8314 153.338 89.1378 181.56 89.1378 200.991V231.526C89.1378 245.174 89.2534 255.468 89.4846 262.407C88.7909 264.952 87.5192 266.224 85.6694 266.224H69.3679C62.5467 266.224 52.5462 266.282 39.3663 266.398C26.1864 266.513 16.1858 266.571 9.36467 266.571C3.12156 266.571 0 265.53 0 263.448V5.98549C0 4.94453 0.231226 4.07707 0.693679 3.3831C1.27174 2.57347 2.08104 1.99516 3.12156 1.64818C4.27769 1.18553 5.37601 0.838547 6.41653 0.607223C7.45705 0.3759 8.7866 0.260239 10.4052 0.260239C12.0238 0.144577 13.3533 0.0867462 14.3938 0.0867462C15.4344 -0.0289154 16.7639 -0.0289154 18.3825 0.0867462C20.0011 0.0867462 21.0416 0.0867462 21.5041 0.0867462H41.9676C74.9173 0.0867462 98.0978 0.549393 111.509 1.47469C125.036 2.39998 135.383 2.86262 142.551 2.86262C145.326 18.3613 149.719 41.3779 155.731 71.9126L168.911 140.963L196.658 0.780716C196.658 0.780716 197.12 0.896377 198.045 1.1277C198.97 1.35902 199.664 1.47469 200.126 1.47469C212.497 1.47469 230.764 1.30119 254.927 0.954208C279.09 0.607224 297.357 0.433731 309.728 0.433731H335.394C338.631 0.780716 340.25 4.01924 340.25 10.1493C342.793 122.225 344.18 184.798 344.412 197.868Z" fill="black"/>
<path d="M352.736 262.754C352.736 259.516 354.817 254.658 358.979 248.181C368.806 233.145 382.853 211.285 401.12 182.601C419.387 153.917 430.081 137.146 433.203 132.288C400.6 76.1921 375.858 34.3226 358.979 6.67946V4.94453C358.979 3.67226 359.673 2.51564 361.06 1.47469C368.459 1.47469 379.442 1.64818 394.01 1.99516C408.577 2.34215 419.56 2.51564 426.959 2.51564C428.925 2.39998 431.642 2.45781 435.11 2.68913C438.694 2.80479 441.064 2.86262 442.22 2.86262H454.36C456.903 2.6313 460.95 2.51564 466.499 2.51564C468.002 2.86262 470.314 5.69633 473.436 11.0168C476.558 16.3372 479.679 22.5251 482.801 29.5805L500.316 70.8717C500.663 70.1777 506.848 56.8766 518.872 30.9684L525.462 17.089C529.855 7.37343 532.861 2.51564 534.48 2.51564C534.595 2.51564 534.711 2.57347 534.827 2.68913C535.058 2.68913 535.347 2.74696 535.694 2.86262C536.041 2.97829 536.33 3.09395 536.561 3.20961C542.573 2.97829 552.747 2.6313 567.083 2.16866C581.419 1.59035 593.847 1.18553 604.368 0.954208C614.889 0.607224 625.12 0.433731 635.063 0.433731C638.3 1.1277 639.919 3.67226 639.919 8.0674V10.1493C599.107 74.6885 573.095 116.095 561.88 134.37L596.564 187.632C602.345 196.654 610.611 209.55 621.363 226.321C632.115 243.092 638.994 253.848 642 258.59V262.06C642 266.224 638.416 268.306 631.248 268.306C621.883 268.306 608.125 268.422 589.974 268.653C571.823 268.884 558.412 269 549.741 269H541.417C535.289 269 530.665 267.843 527.543 265.53L495.807 198.389C494.882 200.355 493.611 203.304 491.992 207.237C490.489 211.054 488.928 214.813 487.31 218.514C485.807 222.099 484.072 226.147 482.107 230.658C480.142 235.053 478.118 239.159 476.037 242.976C474.072 246.793 471.991 250.436 469.794 253.906C467.713 257.376 465.516 260.325 463.204 262.754C460.892 265.299 458.638 267.034 456.441 267.959C430.544 267.496 411.583 267.265 399.559 267.265C394.588 267.265 387.478 267.323 378.229 267.439C368.979 267.554 361.869 267.612 356.898 267.612C354.123 266.571 352.736 264.952 352.736 262.754Z" fill="black"/>
</svg>
