<svg width="657" height="283" viewBox="0 0 657 283" fill="none" xmlns="http://www.w3.org/2000/svg">
<rect width="657" height="283" fill="white"/>
<path d="M356.412 208.868C356.412 210.95 356.527 214.189 356.759 218.584C356.99 222.863 357.163 226.969 357.279 230.902C357.394 234.834 357.452 239.229 357.452 244.087C357.568 248.829 357.394 253.167 356.932 257.099C356.585 260.916 356.007 264.559 355.198 268.029C354.388 271.383 353.117 273.986 351.383 275.836C349.764 277.687 347.741 278.612 345.313 278.612H266.233C260.684 274.333 257.909 258.371 257.909 230.728C257.909 220.666 257.967 208.579 258.083 194.468C258.198 180.242 258.256 170.121 258.256 164.107V151.963C258.256 150.922 258.14 148.955 257.909 146.064C257.794 143.057 257.794 140.743 257.909 139.124C253.285 155.895 247.62 179.895 240.914 211.124C234.209 242.352 229.584 263.229 227.041 273.754C225.884 276.993 220.566 278.612 211.086 278.612H149.695C142.18 278.612 137.787 276.646 136.515 272.713L119.867 200.193C118.364 192.791 116.688 185.1 114.838 177.119C113.104 169.138 111.023 160.059 108.595 149.881C106.167 139.702 104.375 132.184 103.219 127.327C101.831 164.338 101.138 192.56 101.138 211.991V242.526C101.138 256.174 101.253 266.468 101.485 273.407C100.791 275.952 99.5192 277.224 97.6694 277.224H81.3679C74.5467 277.224 64.5462 277.282 51.3663 277.398C38.1864 277.513 28.1858 277.571 21.3647 277.571C15.1216 277.571 12 276.53 12 274.448V16.9855C12 15.9445 12.2312 15.0771 12.6937 14.3831C13.2717 13.5735 14.081 12.9952 15.1216 12.6482C16.2777 12.1855 17.376 11.8385 18.4165 11.6072C19.4571 11.3759 20.7866 11.2602 22.4052 11.2602C24.0238 11.1446 25.3533 11.0867 26.3938 11.0867C27.4344 10.9711 28.7639 10.9711 30.3825 11.0867C32.0011 11.0867 33.0416 11.0867 33.5041 11.0867H53.9676C86.9173 11.0867 110.098 11.5494 123.509 12.4747C137.036 13.4 147.383 13.8626 154.551 13.8626C157.326 29.3613 161.719 52.3779 167.731 82.9126L180.911 151.963L208.658 11.7807C208.658 11.7807 209.12 11.8964 210.045 12.1277C210.97 12.359 211.664 12.4747 212.126 12.4747C224.497 12.4747 242.764 12.3012 266.927 11.9542C291.09 11.6072 309.357 11.4337 321.728 11.4337H347.394C350.631 11.7807 352.25 15.0192 352.25 21.1493C354.793 133.225 356.18 195.798 356.412 208.868Z" fill="black"/>
<path d="M364.736 273.754C364.736 270.516 366.817 265.658 370.979 259.181C380.806 244.145 394.853 222.285 413.12 193.601C431.387 164.917 442.081 148.146 445.203 143.288C412.6 87.1921 387.858 45.3226 370.979 17.6795V15.9445C370.979 14.6723 371.673 13.5156 373.06 12.4747C380.459 12.4747 391.442 12.6482 406.01 12.9952C420.577 13.3421 431.56 13.5156 438.959 13.5156C440.925 13.4 443.642 13.4578 447.11 13.6891C450.694 13.8048 453.064 13.8626 454.22 13.8626H466.36C468.903 13.6313 472.95 13.5156 478.499 13.5156C480.002 13.8626 482.314 16.6963 485.436 22.0168C488.558 27.3372 491.679 33.5251 494.801 40.5805L512.316 81.8717C512.663 81.1777 518.848 67.8766 530.872 41.9684L537.462 28.089C541.855 18.3734 544.861 13.5156 546.48 13.5156C546.595 13.5156 546.711 13.5735 546.827 13.6891C547.058 13.6891 547.347 13.747 547.694 13.8626C548.041 13.9783 548.33 14.0939 548.561 14.2096C554.573 13.9783 564.747 13.6313 579.083 13.1687C593.419 12.5903 605.847 12.1855 616.368 11.9542C626.889 11.6072 637.12 11.4337 647.063 11.4337C650.3 12.1277 651.919 14.6723 651.919 19.0674V21.1493C611.107 85.6885 585.095 127.095 573.88 145.37L608.564 198.632C614.345 207.654 622.611 220.55 633.363 237.321C644.115 254.092 650.994 264.848 654 269.59V273.06C654 277.224 650.416 279.306 643.248 279.306C633.883 279.306 620.125 279.422 601.974 279.653C583.823 279.884 570.412 280 561.741 280H553.417C547.289 280 542.665 278.843 539.543 276.53L507.807 209.389C506.882 211.355 505.61 214.304 503.992 218.237C502.489 222.054 500.928 225.813 499.31 229.514C497.807 233.099 496.072 237.147 494.107 241.658C492.142 246.053 490.118 250.159 488.037 253.976C486.072 257.793 483.991 261.436 481.794 264.906C479.713 268.376 477.516 271.325 475.204 273.754C472.892 276.299 470.638 278.034 468.441 278.959C442.544 278.496 423.583 278.265 411.559 278.265C406.588 278.265 399.478 278.323 390.229 278.439C380.979 278.554 373.869 278.612 368.898 278.612C366.123 277.571 364.736 275.952 364.736 273.754Z" fill="black"/>
</svg>
