<svg width="439" height="225" viewBox="0 0 439 225" fill="none" xmlns="http://www.w3.org/2000/svg">
<path d="M30.5999 220.8C20.1999 220.8 12.4999 217.7 7.4999 211.5C2.4999 205.3 -9.72003e-05 197 -9.72003e-05 186.6V46.8C-9.72003e-05 31.6 4.0999 20.4 12.2999 13.2C20.6999 6.00004 30.6999 2.40004 42.2999 2.40004C53.2999 2.40004 62.5999 6.00004 70.1999 13.2C77.9999 20.4 83.6999 31.8 87.2999 47.4L110.7 149.1H118.5L141.9 47.4C145.5 31.8 151.2 20.4 159 13.2C167 6.00004 176.5 2.40004 187.5 2.40004C199.1 2.40004 209 6.00004 217.2 13.2C225.6 20.4 229.8 31.6 229.8 46.8V186.6C229.8 197 227.2 205.3 222 211.5C217 217.7 209.3 220.8 198.9 220.8C188.9 220.8 181.2 217.7 175.8 211.5C170.4 205.3 167.7 197 167.7 186.6V105.9C167.7 103.9 167.4 102.1 166.8 100.5C166.4 98.7 165.1 97.8 162.9 97.8C161.1 97.8 159.8 98.7 159 100.5C158.2 102.1 157.6 103.9 157.2 105.9L145.8 181.5C144.4 189.7 142.7 196.8 140.7 202.8C138.9 208.6 136 213.1 132 216.3C128 219.3 122.2 220.8 114.6 220.8C107.2 220.8 101.4 219.3 97.1999 216.3C93.1999 213.1 90.1999 208.6 88.1999 202.8C86.3999 196.8 84.8999 189.7 83.6999 181.5L71.9999 105.9C71.7999 103.9 71.2999 102.1 70.4999 100.5C69.6999 98.7 68.2999 97.8 66.2999 97.8C64.2999 97.8 62.9999 98.7 62.3999 100.5C61.7999 102.1 61.4999 103.9 61.4999 105.9V186.6C61.4999 197 58.7999 205.3 53.3999 211.5C48.1999 217.7 40.5999 220.8 30.5999 220.8ZM255.023 157.8C262.423 148 270.623 139.6 279.623 132.6C288.623 125.4 298.623 118.4 309.623 111.6C304.623 106 299.123 101 293.123 96.6C287.323 92.2 281.423 87.7 275.423 83.1C269.623 78.3 264.023 72.7 258.623 66.3C253.423 59.7 249.823 52.8 247.823 45.6C245.823 38.2 245.823 31.1 247.823 24.3C250.023 17.5 254.423 11.9 261.023 7.50004C268.223 2.50003 275.523 0.700033 282.923 2.10004C290.323 3.30004 297.323 6.80004 303.923 12.6C310.523 18.2 316.223 25.3 321.023 33.9C325.423 41.5 329.723 48.8 333.923 55.8C338.123 62.6 342.223 68.9 346.223 74.7C351.623 69.5 355.523 64.6 357.923 60C360.323 55.2 362.423 50 364.223 44.4C366.223 38.8 369.023 32.3 372.623 24.9C375.623 18.5 379.723 13.4 384.923 9.60003C390.323 5.60004 396.323 3.30004 402.923 2.70003C409.523 2.10004 416.023 3.80004 422.423 7.80004C428.823 11.6 433.023 16.9 435.023 23.7C437.223 30.3 437.323 37.4 435.323 45C433.523 52.6 429.823 59.8 424.223 66.6C417.823 74.2 410.023 81 400.823 87C391.823 92.8 382.323 98 372.323 102.6C382.323 111.8 392.023 120.5 401.423 128.7C410.823 136.9 419.323 146.4 426.923 157.2C434.523 168 438.023 178.9 437.423 189.9C437.023 200.9 432.123 209.5 422.723 215.7C412.923 221.9 402.823 223.1 392.423 219.3C382.023 215.5 372.923 207.8 365.123 196.2C357.523 184.6 351.223 174.6 346.223 166.2C341.423 157.6 336.723 149.5 332.123 141.9C330.523 145.9 329.123 150.5 327.923 155.7C326.923 160.9 325.423 166.9 323.423 173.7C321.623 180.5 318.523 188.4 314.123 197.4C310.523 205.2 305.523 211.2 299.123 215.4C292.723 219.4 285.823 221.2 278.423 220.8C271.023 220.6 263.923 218 257.123 213C251.523 208.6 247.823 203.3 246.023 197.1C244.423 190.7 244.423 184.1 246.023 177.3C247.623 170.3 250.623 163.8 255.023 157.8Z" fill="#121212"/>
</svg>
