<svg width="819" height="375" viewBox="0 0 819 375" fill="none" xmlns="http://www.w3.org/2000/svg">
<path d="M758.446 10.8164C763.379 9.83083 768.586 10.3517 773.956 12.1074C779.209 13.3218 783.899 14.5435 788.017 15.7754C790.26 16.3869 792.082 16.907 793.465 17.332C794.566 17.6706 795.644 18.0235 796.43 18.373L796.748 18.5225L797.4 18.8496L797.917 19.3652C802.928 24.3721 806.897 30.8398 809.919 38.6045C812.818 46.0515 814.499 52.3848 814.499 57.3154C814.499 62.1401 813.089 66.5667 810.314 70.4727C801.689 92.4254 779.675 122.663 744.958 160.979C737.225 169.806 730.273 177.195 724.114 183.123C727.495 195.342 729.922 210.826 731.45 229.486L732.198 237.005C735.856 273.548 738.228 294.346 739.32 299.801C740.391 305.147 741.164 309.32 741.626 312.274L741.805 313.466C742.072 315.335 742.861 317.368 744.363 319.58L744.674 320.024L745.189 320.747L745.394 321.61C746.379 325.793 746.259 329.872 744.722 333.643C743.206 337.359 740.475 340.372 736.911 342.772L736.912 342.773C730.603 347.276 722.68 350.522 713.316 352.648L713.315 352.647C694.197 357.21 677.56 357.939 663.61 354.455L662.729 354.235L662.003 353.69C654.893 348.363 649.704 341.648 646.533 333.591C642.716 325.539 637.144 310.116 629.842 287.55C627.277 290.45 624.787 293.349 622.37 296.247C618.328 301.093 614.286 305.938 610.244 310.784L601.779 322.264L601.768 322.278L601.756 322.294C600.535 323.92 599.315 325.547 598.094 327.174C596.907 328.755 595.72 330.335 594.533 331.916C592.425 335.269 589.93 338.793 587.057 342.484L586.977 342.588L586.891 342.686C580.772 349.672 571.799 356.659 560.198 363.696L559.893 363.882L559.562 364.017C548.127 368.671 537.3 370.885 527.145 370.444L527.086 370.441L527.027 370.438C518.025 369.81 510.597 368.273 505.064 365.568C500.272 363.225 496.657 359.859 494.959 355.341C485.964 351.728 479.738 346.002 477.783 337.702V337.701C475.882 330.013 477.189 318.493 480.851 303.861L480.992 303.297L481.271 302.787C516.776 238.148 548.527 192.844 576.571 167.383C573.42 161.196 571.054 152.972 569.321 142.968C567.098 132.065 564.991 123.149 563.001 116.192C561.323 110.325 559.778 106.037 558.406 103.164C548.264 99.9352 540.527 94.2047 535.656 85.7998C529.996 76.0325 532.086 63.3948 539.188 49.2021L539.437 48.7061L539.798 48.2861L547.124 39.7471L547.315 39.5234L547.535 39.3262C563.877 24.6737 580.907 15.6449 598.622 12.623L598.631 12.6221L598.64 12.6201C616.811 9.59431 633.559 13.8863 648.619 25.3018C660.376 30.0799 672.427 42.3839 684.915 60.8984L684.922 60.9082L684.928 60.917C686.32 63.0032 687.539 65.011 688.563 66.9297C694.193 60.5245 701.007 54.3038 708.967 48.2578C719.542 40.1304 726.662 34.1846 730.507 30.3438C734.683 26.1713 739.067 22.2078 743.659 18.4541C748.494 14.5019 753.427 11.8193 758.446 10.8164ZM395.544 4.63281C427.866 3.39078 452.255 10.7772 467.375 28.0088C469.451 30.0897 471.514 32.358 473.564 34.8105C476.414 37.8638 478.712 40.4694 480.425 42.6084C481.918 44.4727 483.225 46.2944 483.956 47.8926C488.118 54.5733 490.458 64.7953 491.472 77.8584C492.514 91.2988 492.193 108.382 490.556 129.035L490.555 129.046L490.554 129.056C486.05 182.643 475.816 236.416 459.86 290.371L459.85 290.406L459.839 290.442C455.534 304.165 451.358 314.817 447.276 322.222C445.238 325.919 443.124 328.993 440.891 331.255C438.728 333.445 436.121 335.206 433.062 335.624C428.502 336.515 424.056 336.525 419.771 335.574L419.714 335.562L419.656 335.547C417.058 334.898 414.619 334.392 412.336 334.02C412.286 334.169 412.231 334.348 412.178 334.561C412.022 335.182 411.888 336 411.801 337.045L411.69 338.366L410.882 339.416C401.679 351.369 387.773 357.029 370.076 357.029C352.79 357.029 337.878 351.603 325.607 340.675C318.874 335.017 314.068 328.669 311.509 321.578C308.929 314.43 308.743 306.84 310.773 298.952L310.784 298.91L310.796 298.868C314.884 284.165 319.379 269.262 324.282 254.158C329.178 238.67 334.48 222.779 340.188 206.484C346.187 189.006 352.567 171.072 359.329 152.681C355.222 159.664 350.764 167.617 345.956 176.557L345.949 176.569L345.942 176.581C331.581 202.886 322.352 219.112 318.407 224.897C311.538 238.618 305.857 249.565 301.369 257.718L301.346 257.762L301.32 257.804C296.47 266.175 289.847 273.004 281.514 278.262L281.457 278.297C273.796 282.974 266.365 286.074 259.184 287.419L259.183 287.418C252.638 288.72 246.24 288.949 240.016 288.061L239.996 288.058L239.978 288.055C225.575 285.874 214.669 279.625 208.115 268.868L207.894 268.506L207.745 268.108C207.135 266.482 206.524 264.855 205.913 263.229C205.303 261.602 204.692 259.976 204.082 258.35C202.697 254.658 201.622 249.821 200.788 243.986L200.773 243.885L200.764 243.783C199.86 234.453 200.45 221.236 202.449 204.254C195.094 215.154 190.477 222.525 188.51 226.455C185.287 232.896 181.853 240.159 178.21 248.247L178.192 248.287L178.174 248.326C174.519 256.035 170.252 265.17 165.372 275.733L165.357 275.765L165.343 275.795C160.51 285.853 156.715 294.845 153.935 302.781C151.011 311.126 147.462 319.259 143.29 327.179L143.25 327.257L143.206 327.332C133.574 344.012 120.197 355.856 103.124 362.657C86.1291 369.428 65.7684 371.087 42.2598 367.97V367.969C32.1322 366.701 23.274 364.149 15.791 360.205C11.7989 358.307 8.55757 355.685 6.56934 352.138C4.53858 348.515 4.09001 344.419 4.84277 340.157L4.85156 340.107L4.86133 340.057C8.16843 323.536 15.7631 296.295 27.5664 258.477C50.7823 183.601 64.5458 135.641 68.9697 114.345L69.0459 113.978L69.1816 113.628C71.9677 106.47 74.3573 99.1098 76.3496 91.5459L76.3779 91.4404L76.4111 91.3359C78.87 83.5565 81.3462 76.7372 83.8457 70.8975C86.4107 63.896 89.8339 58.3361 94.5625 55.2314C98.1309 52.8886 102.034 52.198 106.03 52.8535C108.383 45.7065 113.937 40.0121 121.894 35.6758C131.559 30.4086 142.28 27.8076 153.961 27.8076C165.666 27.8076 176.921 30.6215 187.676 36.1895C197.537 40.7604 204.667 48.2094 209.075 58.2568C242.278 30.8253 273.613 19.6571 302.727 26.7061C312.203 28.7041 320.358 33.7611 327.194 41.5713C347.531 23.0288 370.024 10.7106 394.659 4.75586L395.096 4.65039L395.544 4.63281ZM321.32 211.494C321.006 212.035 320.7 212.559 320.403 213.066C321.26 213.347 322.023 213.305 322.5 213.226C323.078 213.129 323.499 212.94 323.705 212.837C324.05 212.665 324.298 212.472 324.415 212.373L324.223 212.18L321.32 211.494Z" fill="black" stroke="white" stroke-width="9"/>
</svg>
