<svg width="811" height="367" viewBox="0 0 811 367" fill="none" xmlns="http://www.w3.org/2000/svg">
<path d="M754.838 8.77832C759.387 7.86937 764.268 8.34009 769.418 10.0361C774.687 11.2527 779.373 12.4738 783.469 13.7002C785.714 14.3118 787.52 14.8278 788.877 15.2451C790.004 15.5913 790.961 15.9112 791.6 16.1943L791.854 16.3135L792.217 16.4941L792.504 16.7812C797.278 21.5508 801.111 27.7644 804.056 35.3311C806.933 42.7213 808.499 48.77 808.5 53.3164C808.5 57.8071 807.172 61.8969 804.543 65.5137C796.129 87.1097 774.313 117.189 739.477 155.636C731.391 164.868 724.184 172.498 717.864 178.512C721.367 190.736 723.889 206.478 725.46 225.685L726.208 233.193C729.861 269.697 732.244 290.622 733.36 296.194C734.582 302.3 735.408 306.83 735.826 309.75C736.144 311.974 737.069 314.29 738.709 316.705L739.047 317.189L739.334 317.59L739.447 318.07C740.356 321.93 740.222 325.574 738.871 328.889C737.531 332.174 735.086 334.91 731.75 337.146L731.179 337.547C725.238 341.647 717.783 344.672 708.9 346.691L708.901 346.692C689.947 351.221 673.641 351.899 660.096 348.516L659.606 348.394L659.203 348.091C652.357 342.961 647.393 336.517 644.365 328.785C640.426 320.495 634.524 304.056 626.674 279.614C623.27 283.4 619.99 287.184 616.834 290.967C612.783 295.824 608.731 300.682 604.679 305.539L596.17 317.077L596.164 317.086L596.158 317.094C594.937 318.72 593.716 320.347 592.495 321.974C591.293 323.574 590.091 325.175 588.889 326.775C586.813 330.085 584.342 333.579 581.479 337.257L581.434 337.314L581.387 337.368C575.456 344.141 566.671 351.006 555.162 357.987L554.992 358.09L554.808 358.165C543.572 362.739 533.034 364.873 523.232 364.447L523.2 364.445L523.167 364.443C514.276 363.824 507.143 362.315 501.944 359.773C497.181 357.445 493.883 354.154 492.551 349.816C483.47 346.377 477.561 340.958 475.739 333.277V333.278C473.947 326.116 475.124 315.004 478.792 300.348L478.87 300.034L479.025 299.751C515.006 234.245 547.013 188.839 575.073 163.825C571.7 157.787 569.14 149.312 567.284 138.579C565.054 127.644 562.934 118.671 560.924 111.644C559.088 105.223 557.377 100.552 555.819 97.5088C545.662 94.4516 538.092 88.9161 533.387 80.7979C528.253 71.9378 529.957 60.128 536.978 46.0986L537.116 45.8232L537.316 45.5889L544.642 37.0498L544.749 36.9258L544.871 36.8164C561.004 22.3508 577.7 13.5396 594.958 10.5957L594.968 10.5938C612.661 7.64765 628.929 11.8399 643.625 23.0596C654.867 27.5256 666.717 39.4268 679.257 58.0176L679.265 58.0283C681.32 61.1075 682.952 63.9492 684.116 66.5371C689.992 59.4432 697.362 52.5451 706.198 45.8359C716.77 37.7107 723.977 31.6994 727.92 27.7598C732.049 23.6345 736.384 19.7158 740.925 16.0039H740.926C745.602 12.1819 750.241 9.69694 754.838 8.77832ZM391.622 2.63281C423.682 1.40091 447.36 8.754 461.911 25.3711C463.973 27.4352 466.028 29.6949 468.076 32.1475C470.921 35.1953 473.191 37.77 474.865 39.8604C476.405 41.7841 477.592 43.4803 478.189 44.8389C482.127 51.0865 484.465 60.9431 485.479 74.0137C486.511 87.309 486.195 104.277 484.562 124.878L484.561 124.89C480.069 178.335 469.862 231.974 453.943 285.805L453.937 285.824L453.931 285.845C449.64 299.523 445.511 310.027 441.525 317.258C439.533 320.871 437.522 323.769 435.467 325.851C433.465 327.878 431.237 329.311 428.78 329.644C424.426 330.506 420.225 330.515 416.206 329.623L416.141 329.607C413.041 328.833 410.147 328.253 407.458 327.86C407.305 327.884 407.116 327.986 406.849 328.442C406.415 329.186 406 330.577 405.808 332.88L405.747 333.613L405.297 334.197C396.567 345.536 383.324 351.03 366.077 351.03C349.242 351.03 334.81 345.759 322.93 335.175C316.381 329.681 311.809 323.598 309.391 316.899C306.963 310.173 306.769 302.997 308.71 295.452L308.716 295.429L308.723 295.405C312.803 280.731 317.291 265.855 322.185 250.777C327.076 235.305 332.373 219.428 338.077 203.146C346.081 179.823 354.766 155.684 364.132 130.729C357.408 140.83 349.431 154.438 340.196 171.61L340.188 171.624C325.7 198.161 316.501 214.317 312.679 219.885C305.789 233.651 300.101 244.612 295.618 252.755L295.604 252.778L295.59 252.803C290.906 260.887 284.513 267.481 276.447 272.571L276.416 272.591C268.903 277.177 261.7 280.165 254.816 281.454L254.815 281.453C248.466 282.719 242.289 282.936 236.298 282.081L236.288 282.08L236.278 282.078C222.308 279.963 211.997 273.962 205.824 263.829L205.701 263.627L205.618 263.406C205.007 261.78 204.397 260.154 203.787 258.527C203.176 256.901 202.565 255.274 201.955 253.647C200.642 250.151 199.593 245.476 198.768 239.704L198.76 239.647L198.754 239.591C197.73 229.019 198.661 213.206 201.475 192.259C191.361 206.994 185.138 216.732 182.722 221.561C179.484 228.03 176.039 235.319 172.387 243.427L172.377 243.448L172.367 243.471C168.708 251.187 164.439 260.328 159.557 270.896L159.549 270.913L159.541 270.93C154.685 281.036 150.858 290.098 148.047 298.121C145.157 306.372 141.648 314.414 137.521 322.248L137.499 322.291L137.474 322.333C128.053 338.648 115.014 350.175 98.3843 356.8C81.8019 363.406 61.8141 365.073 38.5415 361.989C28.5523 360.742 19.906 358.235 12.6626 354.405C8.92431 352.63 6.04752 350.253 4.31396 347.16C2.5529 344.018 2.1226 340.41 2.81201 336.507L2.81689 336.479L2.82275 336.45C5.90189 321.069 12.7443 296.243 23.313 262.039L25.4761 255.073C48.6843 180.223 62.4807 132.162 66.9282 110.753L66.9712 110.549L67.0464 110.354C69.8604 103.125 72.2734 95.6926 74.2847 88.0566L74.3003 87.998L74.3179 87.9395C76.7714 80.177 79.2342 73.4011 81.7104 67.623C84.2192 60.762 87.4528 55.6671 91.6606 52.9043C95.2433 50.5521 99.2399 50.0724 103.441 51.2021C105.228 43.8564 110.552 37.9552 118.851 33.4326C128.2 28.3378 138.588 25.8086 149.961 25.8086C161.349 25.8086 172.306 28.5474 182.804 33.9912C192.991 38.7037 200.14 46.6225 204.257 57.5498C238.035 29.011 269.449 17.661 298.291 24.6592H298.29C307.903 26.68 316.143 32.0148 323.013 40.457C343.529 21.3299 366.238 8.71798 391.129 2.70117L391.372 2.64258L391.622 2.63281ZM317.456 207.263C317.746 207.302 317.997 207.283 318.172 207.254C318.194 207.25 318.215 207.243 318.236 207.239L317.561 207.08C317.526 207.141 317.491 207.202 317.456 207.263Z" fill="black" stroke="white" stroke-width="5"/>
</svg>
