<svg width="657" height="293" viewBox="0 0 657 293" fill="none" xmlns="http://www.w3.org/2000/svg">
<path d="M82.225 40.6071C82.8917 34.2738 86.8917 29.1071 94.225 25.1072C101.558 21.1072 109.725 19.1072 118.725 19.1072C127.725 19.1072 136.392 21.2738 144.725 25.6071C153.392 29.6072 159.225 36.6072 162.225 46.6072C190.558 21.9405 216.392 12.4405 239.725 18.1072C247.725 19.7738 254.558 24.4405 260.225 32.1072C277.225 15.7738 296.058 5.10714 316.725 0.107144C342.725 -0.892863 361.392 5.10714 372.725 18.1072C374.392 19.7738 376.058 21.6072 377.725 23.6072C382.392 28.6072 385.058 31.9405 385.725 33.6071C391.725 42.9405 393.392 64.4405 390.725 98.1071C387.058 141.774 378.725 185.607 365.725 229.607C358.725 251.94 352.392 263.44 346.725 264.107C343.392 264.774 340.225 264.774 337.225 264.107C334.558 263.44 332.058 262.94 329.725 262.607C327.725 262.607 326.558 264.607 326.225 268.607C319.558 277.274 309.392 281.607 295.725 281.607C282.392 281.607 271.058 277.44 261.725 269.107C251.392 260.44 247.725 250.274 250.725 238.607C254.058 226.607 257.725 214.44 261.725 202.107C265.725 189.44 270.058 176.44 274.725 163.107C282.725 139.774 291.558 115.44 301.225 90.1071C294.225 98.1072 284.725 113.274 272.725 135.607C260.725 157.607 253.225 170.774 250.225 175.107C244.558 186.44 239.892 195.44 236.225 202.107C232.558 208.44 227.558 213.607 221.225 217.607C215.225 221.274 209.558 223.607 204.225 224.607C199.225 225.607 194.392 225.774 189.725 225.107C178.725 223.44 170.892 218.774 166.225 211.107C165.225 208.44 164.225 205.774 163.225 203.107C162.225 200.44 161.392 196.774 160.725 192.107C159.725 181.774 161.058 164.94 164.725 141.607L163.725 143.107C167.725 139.107 169.058 138.107 167.725 140.107C154.392 159.107 146.392 171.274 143.725 176.607C141.058 181.94 138.225 187.94 135.225 194.607C132.225 200.94 128.725 208.44 124.725 217.107C120.725 225.44 117.558 232.94 115.225 239.607C112.892 246.274 110.058 252.774 106.725 259.107C91.725 285.107 65.3917 295.607 27.725 290.607C19.725 289.607 12.8917 287.607 7.225 284.607C1.55833 281.94 -0.775 277.774 0.225 272.107C2.89167 258.774 9.05833 236.607 18.725 205.607C37.725 144.274 49.0583 104.774 52.725 87.1072C55.0583 81.1072 57.0583 74.9405 58.725 68.6072C60.725 62.2738 62.725 56.7738 64.725 52.1071C68.725 41.1071 74.5583 37.2738 82.225 40.6071ZM255.725 164.107V165.107C256.392 163.774 256.392 163.44 255.725 164.107Z" fill="black"/>
<path d="M575.526 35.1072C584.192 28.4405 590.192 23.4405 593.526 20.1072C596.859 16.7738 600.359 13.6071 604.026 10.6071C607.692 7.60715 611.192 5.77382 614.526 5.10714C617.859 4.44048 621.526 4.77382 625.526 6.10716C629.859 7.10714 633.692 8.10714 637.026 9.10715C640.692 10.1071 642.859 10.7738 643.526 11.1072C647.192 14.7738 650.192 19.6072 652.526 25.6071C654.859 31.6071 656.026 36.2738 656.026 39.6072C656.026 42.9405 655.026 45.9405 653.026 48.6071C646.359 65.9405 628.692 90.4405 600.026 122.107C593.026 130.107 586.859 136.607 581.526 141.607C584.526 151.607 586.692 164.774 588.026 181.107C591.359 214.774 593.526 234.107 594.526 239.107C595.526 244.107 596.192 247.774 596.526 250.107C596.859 252.44 597.859 254.774 599.526 257.107C600.859 262.774 599.026 267.274 594.026 270.607C589.359 273.94 583.359 276.44 576.026 278.107C560.692 281.774 547.692 282.274 537.026 279.607C531.692 275.607 527.859 270.607 525.526 264.607C522.192 257.607 517.026 243.107 510.026 221.107C506.359 225.107 502.859 229.107 499.526 233.107C496.192 237.107 492.859 241.107 489.526 245.107L482.526 254.607C480.526 257.274 478.526 259.94 476.526 262.607C474.859 265.274 472.859 268.107 470.526 271.107C465.859 276.44 458.859 281.94 449.526 287.607C440.526 291.274 432.192 292.941 424.526 292.607C410.192 291.607 402.359 287.774 401.026 281.107C393.359 278.44 388.859 274.274 387.526 268.607C386.192 263.274 387.026 254.607 390.026 242.607C420.026 187.94 446.526 150.607 469.526 130.607C466.526 125.94 464.192 118.774 462.526 109.107C458.859 91.1071 455.526 79.4405 452.526 74.1071C444.192 71.7738 438.192 67.4405 434.526 61.1071C430.859 54.7738 431.859 45.9405 437.526 34.6071L443.526 27.6071C456.526 15.9405 469.859 8.94048 483.526 6.60715C497.526 4.27381 510.359 7.60714 522.026 16.6072C530.692 19.9405 540.192 29.2738 550.526 44.6072C553.192 48.6071 554.859 51.9405 555.526 54.6072C560.526 47.9405 567.192 41.4405 575.526 35.1072Z" fill="black"/>
</svg>
